# Blender v2.91.0 OBJ File: 'D_0603_1610Metric.blend'
# www.blender.org
o Plane_Plane.022
v -0.800000 -0.500000 0.000000
v 0.800000 -0.500000 0.000000
v -0.800000 0.500000 0.000000
v 0.800000 0.500000 0.000000
v -0.800000 -0.500000 0.550000
v 0.800000 -0.500000 0.550000
v -0.800000 0.500000 0.550000
v 0.800000 0.500000 0.550000
vn 0.0000 0.0000 -1.0000
vn 0.0000 0.0000 1.0000
vn 1.0000 0.0000 0.0000
vn -1.0000 0.0000 0.0000
vn 0.0000 1.0000 0.0000
vn 0.0000 -1.0000 0.0000
s off
f 1//1 3//1 4//1 2//1
f 5//2 6//2 8//2 7//2
f 2//3 4//3 8//3 6//3
f 3//4 1//4 5//4 7//4
f 4//5 3//5 7//5 8//5
f 1//6 2//6 6//6 5//6
o Plane.001_Plane.023
v -0.604596 -0.433289 0.551000
v -0.499934 -0.433289 0.551000
v -0.604596 0.433289 0.551000
v -0.499934 0.433289 0.551000
v -0.604596 -0.433289 0.552778
v -0.499934 -0.433289 0.552778
v -0.604596 0.433289 0.552778
v -0.499934 0.433289 0.552778
vn 0.0000 0.0000 -1.0000
vn 0.0000 0.0000 1.0000
vn 1.0000 0.0000 0.0000
vn -1.0000 0.0000 0.0000
vn 0.0000 1.0000 0.0000
vn 0.0000 -1.0000 0.0000
s off
f 9//7 11//7 12//7 10//7
f 13//8 14//8 16//8 15//8
f 10//9 12//9 16//9 14//9
f 11//10 9//10 13//10 15//10
f 12//11 11//11 15//11 16//11
f 9//12 10//12 14//12 13//12
