# Blender v2.91.0 OBJ File: 'PowerFLAT.blend'
# www.blender.org
o Plane_Plane.003
v -1.575000 -1.500000 0.001000
v 1.575000 -1.500000 0.001000
v -1.575000 1.500000 0.001000
v 1.575000 1.500000 0.001000
v -1.219832 -1.161745 0.800000
v 1.219832 -1.161745 0.800000
v -1.219832 1.161745 0.800000
v 1.219832 1.161745 0.800000
v 1.489604 1.418670 0.673787
v 1.489604 -1.418670 0.673787
v -1.489604 -1.418670 0.673787
v -1.489604 1.418670 0.673787
vn 0.0000 0.0000 -1.0000
vn 0.0000 0.0000 1.0000
vn 0.4238 0.0000 0.9058
vn -0.4238 0.0000 0.9058
vn 0.0000 0.4409 0.8975
vn 0.0000 -0.4409 0.8975
vn 0.0000 -0.9928 0.1200
vn 0.0000 0.9928 0.1200
vn -0.9920 0.0000 0.1259
vn 0.9920 0.0000 0.1259
s off
f 1//1 3//1 4//1 2//1
f 5//2 6//2 8//2 7//2
f 10//3 9//3 8//3 6//3
f 12//4 11//4 5//4 7//4
f 9//5 12//5 7//5 8//5
f 11//6 10//6 6//6 5//6
f 1//7 2//7 10//7 11//7
f 4//8 3//8 12//8 9//8
f 3//9 1//9 11//9 12//9
f 2//10 4//10 9//10 10//10
o Plane.001_Plane.004
v 0.175000 1.200000 0.000000
v 0.475000 1.200000 0.000000
v 0.175000 1.650000 0.000000
v 0.475000 1.650000 0.000000
v -0.475000 1.200000 0.000000
v -0.175000 1.200000 0.000000
v -0.475000 1.650000 0.000000
v -0.175000 1.650000 0.000000
v -0.825000 1.200000 0.000000
v -1.125000 1.650000 0.000000
v -0.825000 1.650000 0.000000
v 0.825000 1.200000 0.000000
v 0.825000 1.650000 0.000000
v 1.125000 1.650000 0.000000
v -1.125000 -0.500000 0.000000
v 1.125000 -0.500000 0.000000
v -1.725000 -0.100000 0.000000
v 1.725000 -0.100000 0.000000
v -1.725000 0.100000 0.000000
v 1.725000 0.100000 0.000000
v -1.125000 0.100000 0.000000
v 1.125000 0.100000 0.000000
v 1.125000 -0.100000 0.000000
v -1.125000 -0.100000 0.000000
v 0.175000 1.200000 0.150000
v 0.475000 1.200000 0.150000
v 0.175000 1.650000 0.150000
v 0.475000 1.650000 0.150000
v -0.475000 1.200000 0.150000
v -0.175000 1.200000 0.150000
v -0.475000 1.650000 0.150000
v -0.175000 1.650000 0.150000
v -0.825000 1.200000 0.150000
v -1.125000 1.650000 0.150000
v -0.825000 1.650000 0.150000
v 0.825000 1.200000 0.150000
v 0.825000 1.650000 0.150000
v 1.125000 1.650000 0.150000
v -1.125000 -0.500000 0.150000
v 1.125000 -0.500000 0.150000
v -1.725000 -0.100000 0.150000
v 1.725000 -0.100000 0.150000
v -1.725000 0.100000 0.150000
v 1.725000 0.100000 0.150000
v -1.125000 0.100000 0.150000
v 1.125000 0.100000 0.150000
v 1.125000 -0.100000 0.150000
v -1.125000 -0.100000 0.150000
v 0.825000 -1.650000 0.000000
v 1.125000 -1.650000 0.000000
v 0.825000 -1.200000 0.000000
v 1.125000 -1.200000 0.000000
v 0.175000 -1.650000 0.000000
v 0.475000 -1.650000 0.000000
v 0.175000 -1.200000 0.000000
v 0.475000 -1.200000 0.000000
v -0.475000 -1.650000 0.000000
v -0.175000 -1.650000 0.000000
v -0.475000 -1.200000 0.000000
v -0.175000 -1.200000 0.000000
v -1.125000 -1.650000 0.000000
v -0.825000 -1.650000 0.000000
v -1.125000 -1.200000 0.000000
v -0.825000 -1.200000 0.000000
v 0.825000 -1.650000 0.150000
v 1.125000 -1.650000 0.150000
v 0.825000 -1.200000 0.150000
v 1.125000 -1.200000 0.150000
v 0.175000 -1.650000 0.150000
v 0.475000 -1.650000 0.150000
v 0.175000 -1.200000 0.150000
v 0.475000 -1.200000 0.150000
v -0.475000 -1.650000 0.150000
v -0.175000 -1.650000 0.150000
v -0.475000 -1.200000 0.150000
v -0.175000 -1.200000 0.150000
v -1.125000 -1.650000 0.150000
v -0.825000 -1.650000 0.150000
v -1.125000 -1.200000 0.150000
v -0.825000 -1.200000 0.150000
vn 0.0000 0.0000 -1.0000
vn 0.0000 0.0000 1.0000
vn 0.0000 1.0000 0.0000
vn 1.0000 0.0000 0.0000
vn -1.0000 0.0000 0.0000
vn 0.0000 -1.0000 0.0000
s off
f 15//11 16//11 14//11 24//11 25//11 26//11 34//11 32//11 30//11 35//11 28//11 27//11 36//11 29//11 31//11 33//11 22//11 23//11 21//11 17//11 19//11 20//11 18//11 13//11
f 39//12 37//12 42//12 44//12 43//12 41//12 45//12 47//12 46//12 57//12 55//12 53//12 60//12 51//12 52//12 59//12 54//12 56//12 58//12 50//12 49//12 48//12 38//12 40//12
f 21//13 45//13 41//13 17//13
f 26//14 50//14 58//14 34//14
f 35//14 59//14 52//14 28//14
f 23//14 47//14 45//14 21//14
f 31//13 55//13 57//13 33//13
f 13//15 37//15 39//15 15//15
f 29//15 53//15 55//15 31//15
f 22//13 46//13 47//13 23//13
f 36//16 60//16 53//16 29//16
f 16//14 40//14 38//14 14//14
f 34//13 58//13 56//13 32//13
f 24//15 48//15 49//15 25//15
f 15//13 39//13 40//13 16//13
f 32//14 56//14 54//14 30//14
f 18//13 42//13 37//13 13//13
f 17//15 41//15 43//15 19//15
f 30//16 54//16 59//16 35//16
f 25//13 49//13 50//13 26//13
f 20//14 44//14 42//14 18//14
f 14//13 38//13 48//13 24//13
f 27//15 51//15 60//15 36//15
f 19//13 43//13 44//13 20//13
f 33//15 57//15 46//15 22//15
f 28//16 52//16 51//16 27//16
f 61//11 63//11 64//11 62//11
f 65//11 67//11 68//11 66//11
f 69//11 71//11 72//11 70//11
f 73//11 75//11 76//11 74//11
f 77//12 78//12 80//12 79//12
f 81//12 82//12 84//12 83//12
f 85//12 86//12 88//12 87//12
f 89//12 90//12 92//12 91//12
f 73//15 89//15 91//15 75//15
f 66//16 82//16 81//16 65//16
f 74//16 90//16 89//16 73//16
f 68//14 84//14 82//14 66//14
f 76//14 92//14 90//14 74//14
f 67//13 83//13 84//13 68//13
f 61//15 77//15 79//15 63//15
f 75//13 91//13 92//13 76//13
f 69//15 85//15 87//15 71//15
f 62//16 78//16 77//16 61//16
f 70//16 86//16 85//16 69//16
f 64//14 80//14 78//14 62//14
f 72//14 88//14 86//14 70//14
f 63//13 79//13 80//13 64//13
f 71//13 87//13 88//13 72//13
f 65//15 81//15 83//15 67//15
