# Blender v2.92.0 OBJ File: 'X1QFN-16_EP_2.5x2.5mm.blend'
# www.blender.org
o Plane_Plane.002
v -1.275000 -1.275000 0.000000
v 1.275000 -1.275000 0.000000
v -1.275000 1.275000 0.000000
v 1.275000 1.275000 0.000000
v -1.275000 -1.275000 0.500000
v 1.275000 -1.275000 0.500000
v -1.275000 1.275000 0.500000
v 1.275000 1.275000 0.500000
vt 0.000000 0.000000
vt 0.000000 1.000000
vt 1.000000 1.000000
vt 1.000000 0.000000
vt 0.000000 0.000000
vt 1.000000 0.000000
vt 1.000000 1.000000
vt 0.000000 1.000000
vn 0.0000 0.0000 -1.0000
vn 0.0000 0.0000 1.0000
vn 0.0000 1.0000 0.0000
vn 0.0000 -1.0000 0.0000
vn 1.0000 0.0000 0.0000
vn -1.0000 0.0000 0.0000
s off
f 1/1/1 3/2/1 4/3/1 2/4/1
f 5/5/2 6/6/2 8/7/2 7/8/2
f 4/3/3 3/2/3 7/8/3 8/7/3
f 1/1/4 2/4/4 6/6/4 5/5/4
f 2/4/5 4/3/5 8/7/5 6/6/5
f 3/2/6 1/1/6 5/5/6 7/8/6
